<svg width="32" height="32" viewBox="0 0 32 32" fill="none" xmlns="http://www.w3.org/2000/svg">
<path d="M10 30C11.1046 30 12 29.1046 12 28C12 26.8954 11.1046 26 10 26C8.89543 26 8 26.8954 8 28C8 29.1046 8.89543 30 10 30Z" fill="white"/>
<path d="M24 30C25.1046 30 26 29.1046 26 28C26 26.8954 25.1046 26 24 26C22.8954 26 22 26.8954 22 28C22 29.1046 22.8954 30 24 30Z" fill="white"/>
<path d="M28 7.00002H5.82L5 2.80002C4.95325 2.57074 4.82758 2.36512 4.64486 2.21895C4.46214 2.07277 4.23395 1.9953 4 2.00002H0V4.00002H3.18L7 23.2C7.04675 23.4293 7.17242 23.6349 7.35514 23.7811C7.53786 23.9273 7.76605 24.0047 8 24H26V22H8.82L8 18H26C26.2312 18.0057 26.4571 17.931 26.6395 17.7888C26.8218 17.6466 26.9492 17.4456 27 17.22L29 8.22002C29.0335 8.07165 29.0327 7.91758 28.9977 7.76955C28.9627 7.62152 28.8944 7.48343 28.798 7.36579C28.7015 7.24815 28.5795 7.15405 28.4413 7.09067C28.303 7.02729 28.1521 6.99628 28 7.00002ZM25.2 16H7.62L6.22 9.00002H26.75L25.2 16Z" fill="white"/>
</svg>
