<svg width="30" height="24" viewBox="0 0 30 24" fill="none" xmlns="http://www.w3.org/2000/svg">
<path d="M27.1875 0.75H2.8125C1.26562 0.75 0 2.01562 0 3.5625V20.4375C0 21.9844 1.26562 23.25 2.8125 23.25H27.1875C28.7344 23.25 30 21.9844 30 20.4375V3.5625C30 2.01562 28.7344 0.75 27.1875 0.75ZM2.8125 2.625H27.1875C27.6956 2.625 28.125 3.05437 28.125 3.5625V6.375H1.875V3.5625C1.875 3.05437 2.30437 2.625 2.8125 2.625ZM27.1875 21.375H2.8125C2.30437 21.375 1.875 20.9456 1.875 20.4375V12H28.125V20.4375C28.125 20.9456 27.6956 21.375 27.1875 21.375ZM3.75 15.75H5.625V19.5H3.75V15.75ZM7.5 15.75H9.375V19.5H7.5V15.75ZM11.25 15.75H13.125V19.5H11.25V15.75Z" fill="white"/>
</svg>
