<svg width="32" height="32" viewBox="0 0 32 32" fill="none" xmlns="http://www.w3.org/2000/svg">
<path d="M29.92 16.61L26.92 9.61C26.8434 9.42925 26.7154 9.27503 26.5518 9.16656C26.3882 9.05809 26.1963 9.00016 26 9H23V7C23 6.73478 22.8946 6.48043 22.7071 6.29289C22.5196 6.10536 22.2652 6 22 6H3C2.73478 6 2.48043 6.10536 2.29289 6.29289C2.10536 6.48043 2 6.73478 2 7V24C2 24.2652 2.10536 24.5196 2.29289 24.7071C2.48043 24.8946 2.73478 25 3 25H5.14C5.37028 25.8474 5.873 26.5954 6.5706 27.1287C7.26819 27.6621 8.1219 27.951 9 27.951C9.8781 27.951 10.7318 27.6621 11.4294 27.1287C12.127 26.5954 12.6297 25.8474 12.86 25H19.14C19.3703 25.8474 19.873 26.5954 20.5706 27.1287C21.2682 27.6621 22.1219 27.951 23 27.951C23.8781 27.951 24.7318 27.6621 25.4294 27.1287C26.127 26.5954 26.6297 25.8474 26.86 25H29C29.2652 25 29.5196 24.8946 29.7071 24.7071C29.8946 24.5196 30 24.2652 30 24V17C29.9997 16.866 29.9725 16.7333 29.92 16.61ZM23 11H25.34L27.48 16H23V11ZM9 26C8.60444 26 8.21776 25.8827 7.88886 25.6629C7.55996 25.4432 7.30362 25.1308 7.15224 24.7654C7.00087 24.3999 6.96126 23.9978 7.03843 23.6098C7.1156 23.2219 7.30608 22.8655 7.58579 22.5858C7.86549 22.3061 8.22186 22.1156 8.60982 22.0384C8.99778 21.9613 9.39991 22.0009 9.76537 22.1522C10.1308 22.3036 10.4432 22.56 10.6629 22.8889C10.8827 23.2178 11 23.6044 11 24C11 24.5304 10.7893 25.0391 10.4142 25.4142C10.0391 25.7893 9.53043 26 9 26ZM19.14 23H12.86C12.6297 22.1526 12.127 21.4046 11.4294 20.8713C10.7318 20.3379 9.8781 20.049 9 20.049C8.1219 20.049 7.26819 20.3379 6.5706 20.8713C5.873 21.4046 5.37028 22.1526 5.14 23H4V8H21V20.56C20.5446 20.8243 20.1459 21.1759 19.8268 21.5946C19.5076 22.0133 19.2742 22.4909 19.14 23ZM23 26C22.6044 26 22.2178 25.8827 21.8889 25.6629C21.56 25.4432 21.3036 25.1308 21.1522 24.7654C21.0009 24.3999 20.9613 23.9978 21.0384 23.6098C21.1156 23.2219 21.3061 22.8655 21.5858 22.5858C21.8655 22.3061 22.2219 22.1156 22.6098 22.0384C22.9978 21.9613 23.3999 22.0009 23.7654 22.1522C24.1308 22.3036 24.4432 22.56 24.6629 22.8889C24.8827 23.2178 25 23.6044 25 24C25 24.5304 24.7893 25.0391 24.4142 25.4142C24.0391 25.7893 23.5304 26 23 26ZM28 23H26.86C26.6389 22.1435 26.1401 21.3845 25.4416 20.8417C24.7432 20.2989 23.8846 20.0029 23 20V18H28V23Z" fill="#2A899D"/>
</svg>
