<svg width="15" height="14" viewBox="0 0 15 14" fill="none" xmlns="http://www.w3.org/2000/svg">
<path d="M4.9375 7H13.9375M9.4375 9.8125V11.2188C9.4375 11.5917 9.28934 11.9494 9.02562 12.2131C8.7619 12.4768 8.40421 12.625 8.03125 12.625H2.40625C2.03329 12.625 1.6756 12.4768 1.41188 12.2131C1.14816 11.9494 1 11.5917 1 11.2188V2.78125C1 2.40829 1.14816 2.0506 1.41188 1.78688C1.6756 1.52316 2.03329 1.375 2.40625 1.375H7.75C8.5266 1.375 9.4375 2.00465 9.4375 2.78125V4.1875V9.8125ZM11.6875 9.8125L14.5 7L11.6875 4.1875V9.8125Z" stroke="#6A983C" stroke-linecap="round" stroke-linejoin="round"/>
</svg>
