<svg width="17" height="19" viewBox="0 0 17 19" fill="none" xmlns="http://www.w3.org/2000/svg">
<path d="M3.37101 1L0.882324 4.44352V16.4959C0.882324 16.9525 1.05712 17.3904 1.36827 17.7133C1.67942 18.0362 2.10142 18.2176 2.54145 18.2176H14.1553C14.5954 18.2176 15.0174 18.0362 15.3285 17.7133C15.6397 17.3904 15.8145 16.9525 15.8145 16.4959V4.44352L13.3258 1H3.37101Z" stroke="#E9E9E9" stroke-linecap="round" stroke-linejoin="round"/>
<path d="M0.882324 4.44336H15.8145" stroke="#E9E9E9" stroke-linecap="round" stroke-linejoin="round"/>
<path d="M11.6668 7.88672C11.6668 8.79999 11.3172 9.67587 10.6949 10.3216C10.0726 10.9674 9.22858 11.3302 8.34852 11.3302C7.46847 11.3302 6.62446 10.9674 6.00217 10.3216C5.37987 9.67587 5.03027 8.79999 5.03027 7.88672" stroke="#E9E9E9" stroke-linecap="round" stroke-linejoin="round"/>
</svg>
