<svg width="20" height="21" viewBox="0 0 20 21" fill="none" xmlns="http://www.w3.org/2000/svg">
<path d="M10.0165 13.053C11.391 13.053 12.5052 11.8967 12.5052 10.4704C12.5052 9.04399 11.391 7.8877 10.0165 7.8877C8.64206 7.8877 7.52783 9.04399 7.52783 10.4704C7.52783 11.8967 8.64206 13.053 10.0165 13.053Z" stroke="#E9E9E9" stroke-linecap="round" stroke-linejoin="round"/>
<path d="M16.1553 13.0524C16.0449 13.312 16.0119 13.6001 16.0607 13.8793C16.1095 14.1586 16.2378 14.4163 16.4291 14.6192L16.4788 14.6708C16.6331 14.8307 16.7555 15.0206 16.839 15.2297C16.9225 15.4387 16.9654 15.6627 16.9654 15.889C16.9654 16.1153 16.9225 16.3393 16.839 16.5483C16.7555 16.7573 16.6331 16.9472 16.4788 17.1071C16.3247 17.2672 16.1418 17.3942 15.9404 17.4809C15.7389 17.5675 15.523 17.6121 15.305 17.6121C15.087 17.6121 14.8711 17.5675 14.6697 17.4809C14.4682 17.3942 14.2853 17.2672 14.1312 17.1071L14.0814 17.0555C13.8859 16.857 13.6376 16.7239 13.3685 16.6733C13.0994 16.6226 12.8218 16.6568 12.5716 16.7714C12.3262 16.8805 12.117 17.0617 11.9696 17.2927C11.8222 17.5237 11.7431 17.7943 11.742 18.0713V18.2177C11.742 18.6743 11.5672 19.1123 11.2561 19.4352C10.9449 19.7581 10.5229 19.9395 10.0829 19.9395C9.64288 19.9395 9.22088 19.7581 8.90973 19.4352C8.59858 19.1123 8.42378 18.6743 8.42378 18.2177V18.1402C8.41736 17.8553 8.32848 17.5789 8.1687 17.3471C8.00892 17.1152 7.78563 16.9387 7.52786 16.8403C7.27765 16.7257 7.00009 16.6915 6.73099 16.7421C6.46188 16.7928 6.21356 16.9259 6.01805 17.1244L5.96828 17.176C5.81419 17.3361 5.63121 17.4631 5.42979 17.5497C5.22838 17.6364 5.01248 17.681 4.79445 17.681C4.57641 17.681 4.36052 17.6364 4.1591 17.5497C3.95769 17.4631 3.77471 17.3361 3.62062 17.176C3.46636 17.0161 3.34398 16.8262 3.26049 16.6172C3.17699 16.4082 3.13402 16.1841 3.13402 15.9579C3.13402 15.7316 3.17699 15.5075 3.26049 15.2985C3.34398 15.0895 3.46636 14.8996 3.62062 14.7397L3.67039 14.6881C3.86164 14.4852 3.98993 14.2275 4.03872 13.9482C4.08751 13.6689 4.05457 13.3809 3.94415 13.1213C3.83899 12.8666 3.66438 12.6495 3.44182 12.4965C3.21925 12.3436 2.95845 12.2615 2.69151 12.2604H2.55048C2.11045 12.2604 1.68845 12.079 1.3773 11.7561C1.06616 11.4332 0.891357 10.9952 0.891357 10.5386C0.891357 10.082 1.06616 9.64402 1.3773 9.32112C1.68845 8.99823 2.11045 8.81683 2.55048 8.81683H2.62514C2.89972 8.81016 3.16602 8.71793 3.38942 8.55212C3.61281 8.3863 3.78298 8.15458 3.87778 7.88707C3.98821 7.62742 4.02115 7.33939 3.97236 7.06012C3.92356 6.78085 3.79527 6.52316 3.60403 6.32026L3.55425 6.26861C3.39999 6.10871 3.27762 5.91881 3.19412 5.70979C3.11063 5.50078 3.06765 5.27673 3.06765 5.05046C3.06765 4.82419 3.11063 4.60015 3.19412 4.39113C3.27762 4.18211 3.39999 3.99222 3.55425 3.83231C3.70834 3.67223 3.89132 3.54523 4.09274 3.45858C4.29415 3.37194 4.51005 3.32734 4.72808 3.32734C4.94612 3.32734 5.16201 3.37194 5.36343 3.45858C5.56484 3.54523 5.74783 3.67223 5.90191 3.83231L5.95169 3.88396C6.1472 4.08243 6.39552 4.21556 6.66462 4.2662C6.93373 4.31683 7.21128 4.28265 7.46149 4.16805H7.52786C7.77322 4.05893 7.98247 3.87773 8.12986 3.64676C8.27726 3.41579 8.35635 3.14514 8.35742 2.86812V2.72177C8.35742 2.26513 8.53222 1.82719 8.84337 1.50429C9.15451 1.1814 9.57652 1 10.0165 1C10.4566 1 10.8786 1.1814 11.1897 1.50429C11.5009 1.82719 11.6757 2.26513 11.6757 2.72177V2.79925C11.6767 3.07627 11.7558 3.34692 11.9032 3.57789C12.0506 3.80886 12.2599 3.99006 12.5052 4.09918C12.7554 4.21378 13.033 4.24796 13.3021 4.19733C13.5712 4.14669 13.8195 4.01356 14.015 3.81509L14.0648 3.76344C14.2189 3.60335 14.4019 3.47636 14.6033 3.38971C14.8047 3.30307 15.0206 3.25847 15.2386 3.25847C15.4567 3.25847 15.6726 3.30307 15.874 3.38971C16.0754 3.47636 16.2584 3.60335 16.4125 3.76344C16.5667 3.92334 16.6891 4.11324 16.7726 4.32226C16.8561 4.53127 16.8991 4.75532 16.8991 4.98159C16.8991 5.20786 16.8561 5.4319 16.7726 5.64092C16.6891 5.84994 16.5667 6.03983 16.4125 6.19974L16.3627 6.25139C16.1715 6.45429 16.0432 6.71198 15.9944 6.99125C15.9456 7.27051 15.9785 7.55855 16.0889 7.8182V7.88707C16.1941 8.1417 16.3687 8.35885 16.5913 8.51181C16.8138 8.66477 17.0746 8.74685 17.3416 8.74796H17.4826C17.9226 8.74796 18.3446 8.92936 18.6558 9.25225C18.9669 9.57515 19.1417 10.0131 19.1417 10.4697C19.1417 10.9264 18.9669 11.3643 18.6558 11.6872C18.3446 12.0101 17.9226 12.1915 17.4826 12.1915H17.4079C17.141 12.1926 16.8802 12.2747 16.6576 12.4276C16.4351 12.5806 16.2605 12.7978 16.1553 13.0524V13.0524Z" stroke="#E9E9E9" stroke-linecap="round" stroke-linejoin="round"/>
</svg>
