<svg width="30" height="24" viewBox="0 0 30 24" fill="none" xmlns="http://www.w3.org/2000/svg">
<path d="M15 12.2461V23.4961" stroke="black" stroke-linecap="round" stroke-linejoin="round"/>
<path d="M25.2442 20.2344C26.4633 19.5698 27.4265 18.518 27.9815 17.2452C28.5366 15.9724 28.6519 14.551 28.3094 13.2053C27.9669 11.8596 27.186 10.6663 26.09 9.81374C24.994 8.96116 23.6452 8.49785 22.2567 8.49693H20.6817C20.3033 7.03348 19.5981 5.67485 18.6191 4.52317C17.6401 3.37149 16.4127 2.45674 15.0293 1.84769C13.6459 1.23863 12.1424 0.951127 10.6318 1.00678C9.12127 1.06244 7.643 1.4598 6.30814 2.16901C4.97327 2.87822 3.81655 3.88081 2.92494 5.10141C2.03333 6.32201 1.43003 7.72885 1.16039 9.21617C0.890751 10.7035 0.961796 12.2326 1.36818 13.6885C1.77457 15.1444 2.50572 16.4893 3.50666 17.6219" stroke="black" stroke-linecap="round" stroke-linejoin="round"/>
<path d="M20 17.2461L15 12.2461L10 17.2461" stroke="black" stroke-linecap="round" stroke-linejoin="round"/>
</svg>
